<svg xmlns="http://www.w3.org/2000/svg" aria-labelledby="04-sunlit-theme-t 04-sunlit-theme-d" role="img" viewBox="0 0 240 240"><title>Sunlit theme preview</title><desc>Warm parchment theme with honey amber accent.</desc><rect width="240" height="240" fill="#f7f4e9" rx="20"/><rect width="184" height="184" x="28" y="28" fill="#f3e9d2" rx="16"/><rect width="152" height="74" x="44" y="44" fill="#faf4e3" rx="10"/><rect width="84" height="9" x="56" y="58" fill="#46351f" rx="4.5"/><rect width="118" height="6" x="56" y="76" fill="#97865f" rx="3"/><rect width="100" height="6" x="56" y="90" fill="#97865f" opacity=".7" rx="3"/><circle cx="64" cy="150" r="14" fill="#a86c0c"/><rect width="106" height="7" x="90" y="142" fill="#46351f" opacity=".85" rx="3.5"/><rect width="80" height="6" x="90" y="156" fill="#97865f" rx="3"/><g fill="none" stroke="#a86c0c" stroke-linecap="round" stroke-width="1.25"><path d="M180 198c-3-17-1-32 0-44m0 31c7-5 12-9 15-15"/><path d="M180 177c-7-5-11-9-13.5-15m13.5 7c5-4 8-8 9.5-13"/></g></svg>