<svg xmlns="http://www.w3.org/2000/svg" aria-labelledby="22-flashcard-block-t 22-flashcard-block-d" role="img" viewBox="0 0 240 240"><title>Flashcards block</title><desc>A stack of flip cards.</desc><rect width="240" height="240" fill="#1c2620" rx="20"/><path fill="none" stroke="#5dbb6e" d="M0 60q60-14 120 0t120 0" opacity=".12"/><path fill="none" stroke="#5dbb6e" d="M0 120q60-14 120 0t120 0" opacity=".16"/><path fill="none" stroke="#5dbb6e" d="M0 180q60-14 120 0t120 0" opacity=".2"/><rect width="160" height="120" x="40" y="40" fill="#141b16" stroke="#93a596" stroke-opacity=".35" rx="14"/><rect width="116" height="64" x="66" y="74" fill="#1c2620" stroke="#93a596" stroke-opacity=".4" rx="10" transform="rotate(-4 124 106)"/><rect width="116" height="64" x="62" y="64" fill="#141b16" stroke="#5dbb6e" stroke-opacity=".7" rx="10"/><rect width="70" height="8" x="78" y="84" fill="#5dbb6e" rx="4"/><rect width="84" height="6" x="78" y="102" fill="#93a596" opacity=".5" rx="3"/><rect width="100" height="30" x="70" y="158" fill="#5dbb6e" stroke="#5dbb6e" stroke-opacity=".6" opacity=".15" rx="15"/><text x="120" y="178" fill="#5dbb6e" font-family="monospace" font-size="14" text-anchor="middle">CARDS</text></svg>