<svg xmlns="http://www.w3.org/2000/svg" aria-labelledby="37-poster-frame-t 37-poster-frame-d" role="img" viewBox="0 0 240 240"><title>Poster frame</title><desc>A portrait poster frame with title and key lines, used for poster exports.</desc><rect width="240" height="240" fill="#f7f4e9" rx="20"/><rect width="100" height="176" x="70" y="32" fill="#eee9da" stroke="#6e7a68" stroke-opacity=".4" rx="10"/><rect width="40" height="6" x="82" y="48" fill="#3c7a47" rx="3"/><rect width="72" height="10" x="82" y="62" fill="#243024" opacity=".85" rx="5"/><circle cx="88" cy="96" r="3" fill="#3c7a47"/><rect width="56" height="6" x="98" y="93" fill="#6e7a68" opacity=".55" rx="3"/><circle cx="88" cy="116" r="3" fill="#3c7a47"/><rect width="48" height="6" x="98" y="113" fill="#6e7a68" opacity=".45" rx="3"/><circle cx="88" cy="136" r="3" fill="#3c7a47"/><rect width="52" height="6" x="98" y="133" fill="#6e7a68" opacity=".4" rx="3"/><g fill="none" stroke="#3c7a47" stroke-linecap="round" stroke-width=".875"><path d="M146 195.4c-2.1-11.9-.7-22.4 0-30.8m0 21.7c4.9-3.5 8.4-6.3 10.5-10.5"/><path d="M146 180.7c-4.9-3.5-7.7-6.3-9.45-10.5m9.45 4.9c3.5-2.8 5.6-5.6 6.65-9.1"/></g></svg>